{
  "accessors": [
    {
      "bufferView": 2,
      "componentType": 5126,
      "count": 4183,
      "max": [
        1.9633445739746094,
        1.9286928176879883,
        -3.8993935585021973
      ],
      "min": [
        -1.8769125938415527,
        -1.9116220474243164,
        -5.97094202041626
      ],
      "type": "VEC3"
    },
    {
      "bufferView": 2,
      "byteOffset": 50196,
      "componentType": 5126,
      "count": 4183,
      "max": [
        0.9999979138374329,
        0.9999979138374329,
        1.0
      ],
      "min": [
        -0.9999979138374329,
        -0.9999979138374329,
        -2.232500719401287e-06
      ],
      "type": "VEC3"
    },
    {
      "bufferView": 1,
      "componentType": 5126,
      "count": 4183,
      "max": [
        0.6830581426620483,
        0.686725914478302
      ],
      "min": [
        0.31694185733795166,
        -0.09709423780441284
      ],
      "type": "VEC2"
    },
    {
      "bufferView": 0,
      "componentType": 5125,
      "count": 18480,
      "type": "SCALAR"
    },
    {
      "bufferView": 2,
      "byteOffset": 100392,
      "componentType": 5126,
      "count": 1497,
      "max": [
        6.695827007293701,
        8.031145095825195,
        1.4248582124710083
      ],
      "min": [
        0.07581424713134766,
        -0.17961549758911133,
        -0.8446964025497437
      ],
      "type": "VEC3"
    },
    {
      "bufferView": 2,
      "byteOffset": 118356,
      "componentType": 5126,
      "count": 1497,
      "max": [
        0.9995435476303101,
        0.9985126852989197,
        1.0
      ],
      "min": [
        -0.999535858631134,
        -0.9984837770462036,
        -1.7052354905899847e-06
      ],
      "type": "VEC3"
    },
    {
      "bufferView": 1,
      "byteOffset": 33464,
      "componentType": 5126,
      "count": 1497,
      "max": [
        0.9275040030479431,
        1.0159708261489868
      ],
      "min": [
        0.05478963255882263,
        -0.01597064733505249
      ],
      "type": "VEC2"
    },
    {
      "bufferView": 0,
      "byteOffset": 73920,
      "componentType": 5125,
      "count": 3147,
      "type": "SCALAR"
    },
    {
      "bufferView": 2,
      "byteOffset": 136320,
      "componentType": 5126,
      "count": 561,
      "max": [
        1.5163958072662354,
        1.4817371368408203,
        -4.044375419616699
      ],
      "min": [
        -1.4299628734588623,
        -1.4646663665771484,
        -5.410538673400879
      ],
      "type": "VEC3"
    },
    {
      "bufferView": 2,
      "byteOffset": 143052,
      "componentType": 5126,
      "count": 561,
      "max": [
        0.9999940991401672,
        0.9999940991401672,
        1.0
      ],
      "min": [
        -0.999994158744812,
        -0.9999940991401672,
        -6.718403824379493e-07
      ],
      "type": "VEC3"
    },
    {
      "bufferView": 1,
      "byteOffset": 45440,
      "componentType": 5126,
      "count": 561,
      "max": [
        0.6516929268836975,
        0.6489830017089844
      ],
      "min": [
        0.3569503426551819,
        -0.041053950786590576
      ],
      "type": "VEC2"
    },
    {
      "bufferView": 0,
      "byteOffset": 86508,
      "componentType": 5125,
      "count": 2700,
      "type": "SCALAR"
    },
    {
      "bufferView": 2,
      "byteOffset": 149784,
      "componentType": 5126,
      "count": 43391,
      "max": [
        18.053565979003906,
        18.022674560546875,
        10.587784767150879
      ],
      "min": [
        -17.98165512084961,
        -18.01251220703125,
        -48.2721061706543
      ],
      "type": "VEC3"
    },
    {
      "bufferView": 2,
      "byteOffset": 670476,
      "componentType": 5126,
      "count": 43391,
      "max": [
        1.0,
        1.0,
        1.0
      ],
      "min": [
        -1.0,
        -1.0,
        -1.0
      ],
      "type": "VEC3"
    },
    {
      "bufferView": 1,
      "byteOffset": 49928,
      "componentType": 5126,
      "count": 43391,
      "max": [
        2.3006362915039063,
        2.3047380447387695
      ],
      "min": [
        -1.307827353477478,
        -4.327215671539307
      ],
      "type": "VEC2"
    },
    {
      "bufferView": 0,
      "byteOffset": 97308,
      "componentType": 5125,
      "count": 213072,
      "type": "SCALAR"
    },
    {
      "bufferView": 2,
      "byteOffset": 1191168,
      "componentType": 5126,
      "count": 7418,
      "max": [
        14.219396591186523,
        132.70730590820313,
        0.7083333730697632
      ],
      "min": [
        -53.50788497924805,
        1.9323642253875732,
        -0.47668731212615967
      ],
      "type": "VEC3"
    },
    {
      "bufferView": 2,
      "byteOffset": 1280184,
      "componentType": 5126,
      "count": 7418,
      "max": [
        1.0,
        1.0,
        1.0
      ],
      "min": [
        -1.0,
        -1.0,
        -1.0
      ],
      "type": "VEC3"
    },
    {
      "bufferView": 1,
      "byteOffset": 397056,
      "componentType": 5126,
      "count": 7418,
      "max": [
        3.818556070327759,
        3.818556070327759
      ],
      "min": [
        -2.8181354999542236,
        -2.824810743331909
      ],
      "type": "VEC2"
    },
    {
      "bufferView": 0,
      "byteOffset": 949596,
      "componentType": 5125,
      "count": 13716,
      "type": "SCALAR"
    },
    {
      "bufferView": 3,
      "componentType": 5126,
      "count": 101,
      "max": [
        3.3333332538604736
      ],
      "min": [
        0.0
      ],
      "type": "SCALAR"
    },
    {
      "bufferView": 4,
      "componentType": 5126,
      "count": 101,
      "max": [
        6.657902673623539e-08,
        6.657902673623539e-08,
        1.0,
        1.0
      ],
      "min": [
        -3.2074694900074974e-08,
        -5.730736774012257e-08,
        -0.8607420325279236,
        -0.48175370693206787
      ],
      "type": "VEC4"
    }
  ],
  "animations": [
    {
      "channels": [
        {
          "sampler": 0,
          "target": {
            "node": 15,
            "path": "rotation"
          }
        }
      ],
      "name": "Take 001",
      "samplers": [
        {
          "input": 20,
          "interpolation": "LINEAR",
          "output": 21
        }
      ]
    }
  ],
  "asset": {
    "extras": {
      "author": "flathat3d (https://sketchfab.com/flathat3d)",
      "license": "CC-BY-4.0 (http://creativecommons.org/licenses/by/4.0/)",
      "source": "https://sketchfab.com/3d-models/enkei-nt03m-wheels-6d31c56557b945a5abd4015884461dc4",
      "title": "Enkei Nt03+m Wheels"
    },
    "generator": "Sketchfab-12.68.0",
    "version": "2.0"
  },
  "bufferViews": [
    {
      "buffer": 0,
      "byteLength": 1004460,
      "name": "floatBufferViews",
      "target": 34963
    },
    {
      "buffer": 0,
      "byteLength": 456400,
      "byteOffset": 1004460,
      "byteStride": 8,
      "name": "floatBufferViews",
      "target": 34962
    },
    {
      "buffer": 0,
      "byteLength": 1369200,
      "byteOffset": 1460860,
      "byteStride": 12,
      "name": "floatBufferViews",
      "target": 34962
    },
    {
      "buffer": 0,
      "byteLength": 404,
      "byteOffset": 2830060,
      "name": "floatBufferViews"
    },
    {
      "buffer": 0,
      "byteLength": 1616,
      "byteOffset": 2830464,
      "byteStride": 16,
      "name": "floatBufferViews"
    }
  ],
  "buffers": [
    {
      "byteLength": 2832080,
      "uri": "scene.bin"
    }
  ],
  "materials": [
    {
      "doubleSided": true,
      "name": "01_-_Default",
      "pbrMetallicRoughness": {
        "baseColorFactor": [
          0.5757194013916181,
          0.5757194013916181,
          0.5757194013916181,
          1.0
        ],
        "roughnessFactor": 0.11087791625155095
      }
    }
  ],
  "meshes": [
    {
      "name": "CenterCaps_01_01 - Default_0",
      "primitives": [
        {
          "attributes": {
            "NORMAL": 1,
            "POSITION": 0,
            "TEXCOORD_0": 2
          },
          "indices": 3,
          "material": 0,
          "mode": 4
        }
      ]
    },
    {
      "name": "CenterCaps_03_01 - Default_0",
      "primitives": [
        {
          "attributes": {
            "NORMAL": 5,
            "POSITION": 4,
            "TEXCOORD_0": 6
          },
          "indices": 7,
          "material": 0,
          "mode": 4
        }
      ]
    },
    {
      "name": "CenterCaps_02_01 - Default_0",
      "primitives": [
        {
          "attributes": {
            "NORMAL": 9,
            "POSITION": 8,
            "TEXCOORD_0": 10
          },
          "indices": 11,
          "material": 0,
          "mode": 4
        }
      ]
    },
    {
      "name": "Enkei_Nt03m_01_01 - Default_0",
      "primitives": [
        {
          "attributes": {
            "NORMAL": 13,
            "POSITION": 12,
            "TEXCOORD_0": 14
          },
          "indices": 15,
          "material": 0,
          "mode": 4
        }
      ]
    },
    {
      "name": "Enkei_Nt03m_02_01 - Default_0",
      "primitives": [
        {
          "attributes": {
            "NORMAL": 17,
            "POSITION": 16,
            "TEXCOORD_0": 18
          },
          "indices": 19,
          "material": 0,
          "mode": 4
        }
      ]
    }
  ],
  "nodes": [
    {
      "children": [
        1
      ],
      "matrix": [
        1.0,
        0.0,
        0.0,
        0.0,
        0.0,
        2.220446049250313e-16,
        -1.0,
        0.0,
        0.0,
        1.0,
        2.220446049250313e-16,
        0.0,
        0.0,
        0.0,
        0.0,
        1.0
      ],
      "name": "Sketchfab_model"
    },
    {
      "children": [
        2
      ],
      "matrix": [
        1.0,
        0.0,
        0.0,
        0.0,
        0.0,
        0.0,
        1.0,
        0.0,
        0.0,
        -1.0,
        0.0,
        0.0,
        0.0,
        0.0,
        0.0,
        1.0
      ],
      "name": "8289f959f7074db297c47c88c5943ca9.fbx"
    },
    {
      "children": [
        3
      ],
      "name": "Object_2"
    },
    {
      "children": [
        4,
        5,
        6,
        9,
        12,
        15,
        18
      ],
      "name": "RootNode"
    },
    {
      "name": "Particle View 001",
      "rotation": [
        -0.7071068286895752,
        -0.0,
        0.0,
        0.7071068286895752
      ],
      "scale": [
        6.92110013961792,
        6.92110013961792,
        6.92110013961792
      ],
      "translation": [
        256.90618896484375,
        -6.101604461669922,
        0.2424163818359375
      ]
    },
    {
      "name": "Particle View 002",
      "rotation": [
        -0.7071068286895752,
        -0.0,
        0.0,
        0.7071068286895752
      ],
      "scale": [
        6.92110013961792,
        6.92110013961792,
        6.92110013961792
      ],
      "translation": [
        653.0694580078125,
        -6.101604461669922,
        -308.13946533203125
      ]
    },
    {
      "children": [
        7
      ],
      "name": "CenterCaps_01",
      "rotation": [
        8.146034247147327e-08,
        0.0,
        0.0,
        1.0
      ],
      "scale": [
        0.5453240275382996,
        0.5453240275382996,
        0.1802150011062622
      ],
      "translation": [
        0.00384521484375,
        0.0018310546875,
        2.684326171875
      ]
    },
    {
      "children": [
        8
      ],
      "matrix": [
        1.0,
        0.0,
        -0.0,
        0.0,
        0.0,
        1.0,
        0.0,
        0.0,
        0.0,
        0.0,
        1.0,
        0.0,
        -0.04321875795722008,
        -0.008535151369869709,
        4.935161590576172,
        1.0
      ],
      "name": "Object_7"
    },
    {
      "mesh": 0,
      "name": "CenterCaps_01_01 - Default_0"
    },
    {
      "children": [
        10
      ],
      "name": "CenterCaps_03",
      "rotation": [
        -1.97354233932856e-06,
        3.3977166822296567e-06,
        0.8660255670547485,
        -0.4999999403953552
      ],
      "scale": [
        0.12857499718666077,
        0.12857499718666077,
        0.030765999108552933
      ],
      "translation": [
        0.00384521484375,
        0.0018310546875,
        2.8527145385742188
      ]
    },
    {
      "children": [
        11
      ],
      "matrix": [
        1.0,
        0.0,
        -0.0,
        0.0,
        0.0,
        1.0,
        0.0,
        0.0,
        0.0,
        0.0,
        1.0,
        0.0,
        -3.387620449066162,
        -3.9283411502838135,
        -0.25165361166000366,
        1.0
      ],
      "name": "Object_10"
    },
    {
      "mesh": 1,
      "name": "CenterCaps_03_01 - Default_0"
    },
    {
      "children": [
        13
      ],
      "name": "CenterCaps_02",
      "rotation": [
        8.146034247147327e-08,
        0.0,
        0.0,
        1.0
      ],
      "scale": [
        0.5453240275382996,
        0.5453240275382996,
        0.1802150011062622
      ],
      "translation": [
        0.00384521484375,
        0.0018310546875,
        2.684326171875
      ]
    },
    {
      "children": [
        14
      ],
      "matrix": [
        1.0,
        0.0,
        -0.0,
        0.0,
        0.0,
        1.0,
        0.0,
        0.0,
        0.0,
        0.0,
        1.0,
        0.0,
        -0.04321875795722008,
        -0.008535151369869709,
        4.935161590576172,
        1.0
      ],
      "name": "Object_13"
    },
    {
      "mesh": 2,
      "name": "CenterCaps_02_01 - Default_0"
    },
    {
      "children": [
        16
      ],
      "name": "Enkei_Nt03m_01",
      "rotation": [
        8.146034247147327e-08,
        0.0,
        0.0,
        1.0
      ],
      "scale": [
        0.529941976070404,
        0.529941976070404,
        0.17513200640678406
      ],
      "translation": [
        0.00580596923828125,
        -0.00270843505859375,
        -0.16493988037109375
      ]
    },
    {
      "children": [
        17
      ],
      "matrix": [
        1.0,
        0.0,
        -0.0,
        0.0,
        0.0,
        1.0,
        0.0,
        0.0,
        0.0,
        0.0,
        1.0,
        0.0,
        -0.04691150039434433,
        2.8057638701284304e-05,
        19.76020622253418,
        1.0
      ],
      "name": "Object_16"
    },
    {
      "mesh": 3,
      "name": "Enkei_Nt03m_01_01 - Default_0"
    },
    {
      "children": [
        19
      ],
      "name": "Enkei_Nt03m_02",
      "rotation": [
        1.2631221579795238e-06,
        8.33515855447331e-07,
        0.49999985098838806,
        0.8660255074501038
      ],
      "scale": [
        0.12378399819135666,
        0.12378399819135666,
        0.12378399819135666
      ],
      "translation": [
        0.00580596923828125,
        -0.0027065277099609375,
        4.072700500488281
      ]
    },
    {
      "children": [
        20
      ],
      "matrix": [
        1.0,
        0.0,
        -0.0,
        0.0,
        0.0,
        1.0,
        0.0,
        0.0,
        0.0,
        0.0,
        1.0,
        0.0,
        -5.894113540649414,
        -67.2853012084961,
        -0.3366962969303131,
        1.0
      ],
      "name": "Object_19"
    },
    {
      "mesh": 4,
      "name": "Enkei_Nt03m_02_01 - Default_0"
    }
  ],
  "scene": 0,
  "scenes": [
    {
      "name": "Sketchfab_Scene",
      "nodes": [
        0
      ]
    }
  ]
}
