{
  "accessors": [
    {
      "bufferView": 2,
      "componentType": 5126,
      "count": 844,
      "max": [
        0.3560829162597656,
        2.963308095932007,
        3.8071305751800537
      ],
      "min": [
        -0.7149654626846313,
        -2.963308095932007,
        -3.8071305751800537
      ],
      "type": "VEC3"
    },
    {
      "bufferView": 2,
      "byteOffset": 10128,
      "componentType": 5126,
      "count": 844,
      "max": [
        1.0,
        1.0,
        1.0
      ],
      "min": [
        -1.0,
        -1.0,
        -1.0
      ],
      "type": "VEC3"
    },
    {
      "bufferView": 1,
      "componentType": 5126,
      "count": 844,
      "max": [
        0.875,
        0.625
      ],
      "min": [
        0.125,
        0.1249999925494194
      ],
      "type": "VEC2"
    },
    {
      "bufferView": 0,
      "componentType": 5125,
      "count": 1677,
      "type": "SCALAR"
    },
    {
      "bufferView": 2,
      "byteOffset": 20256,
      "componentType": 5126,
      "count": 44,
      "max": [
        -0.12818363308906555,
        1.9487571716308594,
        1.868192434310913
      ],
      "min": [
        -0.22695466876029968,
        -1.9487571716308594,
        -3.8071305751800537
      ],
      "type": "VEC3"
    },
    {
      "bufferView": 2,
      "byteOffset": 20784,
      "componentType": 5126,
      "count": 44,
      "max": [
        1.0,
        0.9191195368766785,
        0.0
      ],
      "min": [
        0.39397886395454407,
        -0.840333878993988,
        -1.5229145722273074e-10
      ],
      "type": "VEC3"
    },
    {
      "bufferView": 1,
      "byteOffset": 6752,
      "componentType": 5126,
      "count": 44,
      "max": [
        0.46837538480758667,
        0.625
      ],
      "min": [
        0.375,
        0.5982598066329956
      ],
      "type": "VEC2"
    },
    {
      "bufferView": 0,
      "byteOffset": 6708,
      "componentType": 5125,
      "count": 66,
      "type": "SCALAR"
    },
    {
      "bufferView": 2,
      "byteOffset": 21312,
      "componentType": 5126,
      "count": 446,
      "max": [
        0.4592451751232147,
        2.6736960411071777,
        0.20195865631103516
      ],
      "min": [
        0.31069377064704895,
        2.337343454360962,
        -0.5109363198280334
      ],
      "type": "VEC3"
    },
    {
      "bufferView": 2,
      "byteOffset": 26664,
      "componentType": 5126,
      "count": 446,
      "max": [
        1.0,
        1.0,
        1.0
      ],
      "min": [
        -1.0,
        -1.0,
        -1.0
      ],
      "type": "VEC3"
    },
    {
      "bufferView": 1,
      "byteOffset": 7104,
      "componentType": 5126,
      "count": 446,
      "max": [
        0.875,
        1.0
      ],
      "min": [
        0.5,
        0.0
      ],
      "type": "VEC2"
    },
    {
      "bufferView": 0,
      "byteOffset": 6972,
      "componentType": 5125,
      "count": 882,
      "type": "SCALAR"
    },
    {
      "bufferView": 2,
      "byteOffset": 32016,
      "componentType": 5126,
      "count": 264,
      "max": [
        0.479440838098526,
        2.617555856704712,
        0.10144701600074768
      ],
      "min": [
        0.43898746371269226,
        2.392091989517212,
        -0.41042470932006836
      ],
      "type": "VEC3"
    },
    {
      "bufferView": 2,
      "byteOffset": 35184,
      "componentType": 5126,
      "count": 264,
      "max": [
        1.0,
        0.8191099762916565,
        1.0
      ],
      "min": [
        -1.0106762715622608e-07,
        -0.9680877327919006,
        -1.0
      ],
      "type": "VEC3"
    },
    {
      "bufferView": 1,
      "byteOffset": 10672,
      "componentType": 5126,
      "count": 264,
      "max": [
        1.0,
        1.0
      ],
      "min": [
        0.0,
        0.5
      ],
      "type": "VEC2"
    },
    {
      "bufferView": 0,
      "byteOffset": 10500,
      "componentType": 5125,
      "count": 504,
      "type": "SCALAR"
    },
    {
      "bufferView": 2,
      "byteOffset": 38352,
      "componentType": 5126,
      "count": 132,
      "max": [
        0.29344993829727173,
        -0.1419200599193573,
        2.6712892055511475
      ],
      "min": [
        0.23863159120082855,
        -0.447445809841156,
        2.356480598449707
      ],
      "type": "VEC3"
    },
    {
      "bufferView": 2,
      "byteOffset": 39936,
      "componentType": 5126,
      "count": 132,
      "max": [
        1.0,
        0.9680842757225037,
        0.905898928642273
      ],
      "min": [
        0.0,
        -0.9680847525596619,
        -1.0
      ],
      "type": "VEC3"
    },
    {
      "bufferView": 1,
      "byteOffset": 12784,
      "componentType": 5126,
      "count": 132,
      "max": [
        1.0,
        1.0
      ],
      "min": [
        0.0,
        0.5
      ],
      "type": "VEC2"
    },
    {
      "bufferView": 0,
      "byteOffset": 12516,
      "componentType": 5125,
      "count": 252,
      "type": "SCALAR"
    },
    {
      "bufferView": 2,
      "byteOffset": 41520,
      "componentType": 5126,
      "count": 132,
      "max": [
        0.29344993829727173,
        0.447445809841156,
        2.675361156463623
      ],
      "min": [
        0.23863157629966736,
        0.14192001521587372,
        2.3605525493621826
      ],
      "type": "VEC3"
    },
    {
      "bufferView": 2,
      "byteOffset": 43104,
      "componentType": 5126,
      "count": 132,
      "max": [
        1.0,
        0.9680847525596619,
        0.7629709243774414
      ],
      "min": [
        0.0,
        -0.9680838584899902,
        -1.0
      ],
      "type": "VEC3"
    },
    {
      "bufferView": 1,
      "byteOffset": 13840,
      "componentType": 5126,
      "count": 132,
      "max": [
        1.0,
        1.0
      ],
      "min": [
        0.0,
        0.5
      ],
      "type": "VEC2"
    },
    {
      "bufferView": 0,
      "byteOffset": 13524,
      "componentType": 5125,
      "count": 252,
      "type": "SCALAR"
    }
  ],
  "asset": {
    "extras": {
      "author": "Lena Pauly (https://sketchfab.com/LenaPauly)",
      "license": "CC-BY-4.0 (http://creativecommons.org/licenses/by/4.0/)",
      "source": "https://sketchfab.com/3d-models/elevator-front-fbe7575fa28244e7a9d69292c3b5ed4a",
      "title": "Elevator_Front"
    },
    "generator": "Sketchfab-14.41.0",
    "version": "2.0"
  },
  "bufferViews": [
    {
      "buffer": 0,
      "byteLength": 14532,
      "name": "floatBufferViews",
      "target": 34963
    },
    {
      "buffer": 0,
      "byteLength": 14896,
      "byteOffset": 14532,
      "byteStride": 8,
      "name": "floatBufferViews",
      "target": 34962
    },
    {
      "buffer": 0,
      "byteLength": 44688,
      "byteOffset": 29428,
      "byteStride": 12,
      "name": "floatBufferViews",
      "target": 34962
    }
  ],
  "buffers": [
    {
      "byteLength": 74116,
      "uri": "scene.bin"
    }
  ],
  "materials": [
    {
      "doubleSided": true,
      "name": "exterior",
      "pbrMetallicRoughness": {
        "baseColorFactor": [
          0.205855,
          0.205855,
          0.205855,
          1.0
        ],
        "metallicFactor": 0.0,
        "roughnessFactor": 0.9539694226491781
      }
    },
    {
      "doubleSided": true,
      "name": "doors",
      "pbrMetallicRoughness": {
        "metallicFactor": 0.0,
        "roughnessFactor": 0.7763932022500211
      }
    },
    {
      "doubleSided": true,
      "name": "updownbuttonbase",
      "pbrMetallicRoughness": {
        "baseColorFactor": [
          0.149308,
          0.149308,
          0.149308,
          1.0
        ],
        "metallicFactor": 0.0,
        "roughnessFactor": 0.9666137162415461
      }
    },
    {
      "doubleSided": true,
      "emissiveFactor": [
        0.614779,
        0.5524299999999999,
        0.0531324
      ],
      "name": "updownbutton",
      "pbrMetallicRoughness": {
        "baseColorFactor": [
          0.8,
          0.8,
          0.8,
          1.0
        ],
        "metallicFactor": 0.0,
        "roughnessFactor": 0.8211145618000169
      }
    },
    {
      "doubleSided": true,
      "emissiveFactor": [
        0.3403829999999998,
        0.33280400000000016,
        0.04210900000000003
      ],
      "name": "uplight",
      "pbrMetallicRoughness": {
        "baseColorFactor": [
          0.8,
          0.8,
          0.8,
          1.0
        ],
        "metallicFactor": 0.0,
        "roughnessFactor": 0.8211145618000169
      }
    },
    {
      "doubleSided": true,
      "name": "material_0",
      "pbrMetallicRoughness": {
        "baseColorFactor": [
          0.0207241,
          0.0207241,
          0.0207241,
          1.0
        ],
        "metallicFactor": 0.0,
        "roughnessFactor": 0.9953659503627497
      }
    }
  ],
  "meshes": [
    {
      "name": "Cube_exterior_0",
      "primitives": [
        {
          "attributes": {
            "NORMAL": 1,
            "POSITION": 0,
            "TEXCOORD_0": 2
          },
          "indices": 3,
          "material": 0,
          "mode": 4
        }
      ]
    },
    {
      "name": "Cube_doors_0",
      "primitives": [
        {
          "attributes": {
            "NORMAL": 5,
            "POSITION": 4,
            "TEXCOORD_0": 6
          },
          "indices": 7,
          "material": 1,
          "mode": 4
        }
      ]
    },
    {
      "name": "Cube_updownbuttonbase_0",
      "primitives": [
        {
          "attributes": {
            "NORMAL": 9,
            "POSITION": 8,
            "TEXCOORD_0": 10
          },
          "indices": 11,
          "material": 2,
          "mode": 4
        }
      ]
    },
    {
      "name": "Cube_updownbutton_0",
      "primitives": [
        {
          "attributes": {
            "NORMAL": 13,
            "POSITION": 12,
            "TEXCOORD_0": 14
          },
          "indices": 15,
          "material": 3,
          "mode": 4
        }
      ]
    },
    {
      "name": "Cube_uplight_0",
      "primitives": [
        {
          "attributes": {
            "NORMAL": 17,
            "POSITION": 16,
            "TEXCOORD_0": 18
          },
          "indices": 19,
          "material": 4,
          "mode": 4
        }
      ]
    },
    {
      "name": "Cube_downlight_0",
      "primitives": [
        {
          "attributes": {
            "NORMAL": 21,
            "POSITION": 20,
            "TEXCOORD_0": 22
          },
          "indices": 23,
          "material": 5,
          "mode": 4
        }
      ]
    }
  ],
  "nodes": [
    {
      "children": [
        1
      ],
      "matrix": [
        -2.220446049250313e-16,
        -2.220446049250313e-16,
        1.0,
        0.0,
        1.0,
        1.6081226229577287e-16,
        2.2204460492503136e-16,
        0.0,
        -1.6081226229577292e-16,
        1.0,
        2.220446049250313e-16,
        0.0,
        0.0,
        0.0,
        0.0,
        1.0
      ],
      "name": "Sketchfab_model"
    },
    {
      "children": [
        2
      ],
      "matrix": [
        0.009999999776482582,
        0.0,
        0.0,
        0.0,
        0.0,
        0.0,
        0.009999999776482582,
        0.0,
        0.0,
        -0.009999999776482582,
        0.0,
        0.0,
        0.0,
        0.0,
        0.0,
        1.0
      ],
      "name": "e80c9f345fd74417a2e075d76747befd.fbx"
    },
    {
      "children": [
        3,
        6,
        8
      ],
      "name": "RootNode"
    },
    {
      "children": [
        4
      ],
      "matrix": [
        -29.08647719990347,
        -5.518906457566863,
        -95.51711910171437,
        0.0,
        56.63930913109449,
        79.46723428563203,
        -21.83912397841966,
        0.0,
        77.11008775993375,
        -60.45246356562044,
        -19.98834696773717,
        0.0,
        407.6245422363281,
        590.38623046875,
        -100.54539489746094,
        1.0
      ],
      "name": "Light"
    },
    {
      "children": [
        5
      ],
      "matrix": [
        1.0,
        0.0,
        0.0,
        0.0,
        0.0,
        2.220446049250313e-16,
        1.0,
        0.0,
        0.0,
        -1.0,
        2.220446049250313e-16,
        0.0,
        0.0,
        0.0,
        0.0,
        1.0
      ],
      "name": "Object_4"
    },
    {
      "name": "Object_5"
    },
    {
      "children": [
        7
      ],
      "matrix": [
        -65.15581009765468,
        -44.527143038140764,
        -61.41704928909654,
        0.0,
        -32.40135466989878,
        89.5395708958271,
        -30.542085476036902,
        0.0,
        68.59207001076176,
        1.2755314797120858e-05,
        -72.76761921184276,
        0.0,
        735.88916015625,
        495.8309326171875,
        692.5791015625,
        1.0
      ],
      "name": "Camera"
    },
    {
      "name": "Object_7"
    },
    {
      "children": [
        9,
        10,
        11,
        12,
        13,
        14
      ],
      "matrix": [
        100.0,
        0.0,
        0.0,
        0.0,
        0.0,
        -1.629206793918314e-05,
        -99.99999999999868,
        0.0,
        0.0,
        99.99999999999868,
        -1.629206793918314e-05,
        0.0,
        0.0,
        0.0,
        -1.6754672527313232,
        1.0
      ],
      "name": "Cube"
    },
    {
      "mesh": 0,
      "name": "Cube_exterior_0"
    },
    {
      "mesh": 1,
      "name": "Cube_doors_0"
    },
    {
      "mesh": 2,
      "name": "Cube_updownbuttonbase_0"
    },
    {
      "mesh": 3,
      "name": "Cube_updownbutton_0"
    },
    {
      "mesh": 4,
      "name": "Cube_uplight_0"
    },
    {
      "mesh": 5,
      "name": "Cube_downlight_0"
    }
  ],
  "scene": 0,
  "scenes": [
    {
      "name": "Sketchfab_Scene",
      "nodes": [
        0
      ]
    }
  ]
}
